<svg width="300" height="176" viewBox="0 0 300 176" fill="none" xmlns="http://www.w3.org/2000/svg">
<path d="M180.808 61.5L155.808 80.5L155.308 175.5H180.808V61.5Z" fill="#183059"/>
<path d="M192.808 175.5V58.5H260.808C264.67 58.4751 266.842 58.4968 270.808 59C273.214 59.5105 276.308 61.5 276.308 61.5L280.808 63.5L285.808 66L290.308 70L293.808 74.5L296.808 79L298.808 84.5V102L296.808 109L293.808 114.5L290.308 119L286.308 122.5C284.579 124.044 281.308 125.5 281.308 125.5L276.308 127L270.808 127.5H228.308V106.5H263.808L270.808 103L273.308 99.5V95.5V88.5L270.808 84.5L263.808 80.5H218.308V175.5H192.808Z" fill="#183059"/>
<path d="M180.808 61.5L155.808 80.5L155.308 175.5H180.808V61.5Z" stroke="#183059"/>
<path d="M192.808 175.5V58.5H260.808C264.67 58.4751 266.842 58.4968 270.808 59C273.214 59.5105 276.308 61.5 276.308 61.5L280.808 63.5L285.808 66L290.308 70L293.808 74.5L296.808 79L298.808 84.5V102L296.808 109L293.808 114.5L290.308 119L286.308 122.5C284.579 124.044 281.308 125.5 281.308 125.5L276.308 127L270.808 127.5H228.308V106.5H263.808L270.808 103L273.308 99.5V95.5V88.5L270.808 84.5L263.808 80.5H218.308V175.5H192.808Z" stroke="#183059"/>
<ellipse cx="75.3082" cy="48.5" rx="18" ry="16" fill="#DDA73B"/>
<path d="M11.8082 77.5836C5.10817 74.1836 2.60817 70.3837 0.308167 68.5836C6.80817 70.6836 20.2082 77.5836 32.8082 79.0836C45.4082 80.5836 49.3082 80.0836 63.3082 76.0836C77.3082 72.0836 82.7082 70.2837 102.808 59.0837C122.908 47.8837 144.208 30.9837 163.808 20.0837C183.408 9.18365 185.308 8.38365 200.808 4.58365C216.308 0.783651 226.708 -0.316349 241.308 1.08365C255.908 2.48365 274.608 10.2837 273.808 11.5837C273.008 12.8837 251.308 5.58371 237.308 7.58365C223.308 9.58359 230.057 7.57371 206.808 16.0837C182.686 25.3984 130.808 62.0837 121.808 67.5836C112.808 73.0836 93.8082 80.0837 81.3082 83.0837C68.8082 86.0837 75.4206 84.651 65.3082 86.0837C55.8082 86.3837 44.5082 87.4837 33.8082 85.5836C23.1082 83.6836 18.5082 80.9837 11.8082 77.5836Z" fill="#183059" stroke="#183059"/>
<path d="M45.033 98.9697C30.233 96.4697 19.633 88.5697 13.033 85.9697C12.633 85.2697 7.433 81.9697 10.033 82.4697C12.633 82.9697 17.433 86.6697 25.033 88.4697C32.633 90.2697 39.733 91.0697 48.033 91.4697C56.333 91.8697 57.733 92.0697 66.533 90.4697C75.333 88.8697 81.833 87.0697 92.033 83.4697C102.233 79.8697 95.533 83.4697 117.533 72.4697C139.133 60.1697 176.633 35.1697 200.033 22.9697C224.033 13.4697 221.533 14.4697 234.533 12.4697C248.533 10.8697 259.133 11.1697 270.033 13.9697C280.933 16.7697 289.733 24.9697 289.033 25.4697C288.333 25.9697 276.233 17.6697 266.533 16.4697C256.833 15.2697 253.933 15.0697 240.533 19.4697C227.133 23.8697 216.733 28.4697 199.533 38.4697C182.333 48.4697 169.633 60.0697 154.533 69.4697C139.433 78.8697 137.733 79.6697 124.033 85.4697C110.333 91.2697 101.833 95.7697 86.033 98.4697C70.233 101.17 59.833 101.47 45.033 98.9697Z" fill="#C9CDDD" stroke="#C9CDDD"/>
</svg>
