<svg width="1025" height="602" viewBox="0 0 1025 602" fill="none" xmlns="http://www.w3.org/2000/svg">
<path d="M619.511 209.759L533.749 274.939L532.033 600.835H619.511V209.759Z" fill="#183059"/>
<path d="M660.677 600.835V199.468H893.95C907.198 199.383 914.649 199.457 928.254 201.183C936.508 202.935 947.122 209.759 947.122 209.759L962.559 216.62L979.712 225.197L995.149 238.919L1007.16 254.356L1017.45 269.793L1024.31 288.661V348.694L1017.45 372.708L1007.16 391.575L995.149 407.012L981.427 419.019C975.495 424.315 964.275 429.311 964.275 429.311L947.122 434.456L928.254 436.172H782.459V364.131H904.241L928.254 352.125L936.831 340.118V326.396V302.383L928.254 288.661L904.241 274.939H748.154V600.835H660.677Z" fill="#183059"/>
<path d="M619.511 209.759L533.749 274.939L532.033 600.835H619.511V209.759Z" stroke="#183059"/>
<path d="M660.677 600.835V199.468H893.95C907.198 199.383 914.649 199.457 928.254 201.183C936.508 202.935 947.122 209.759 947.122 209.759L962.559 216.62L979.712 225.197L995.149 238.919L1007.16 254.356L1017.45 269.793L1024.31 288.661V348.694L1017.45 372.708L1007.16 391.575L995.149 407.012L981.427 419.019C975.495 424.315 964.275 429.311 964.275 429.311L947.122 434.456L928.254 436.172H782.459V364.131H904.241L928.254 352.125L936.831 340.118V326.396V302.383L928.254 288.661L904.241 274.939H748.154V600.835H660.677Z" stroke="#183059"/>
<ellipse cx="257.594" cy="165.163" rx="61.7487" ry="54.8878" fill="#DDA73B"/>
<path d="M39.7587 264.934C16.7744 253.271 8.19822 240.235 0.308105 234.06C22.6063 241.264 68.5748 264.934 111.799 270.08C155.023 275.226 168.402 273.511 216.429 259.789C264.456 246.067 282.98 239.892 351.933 201.47C420.886 163.049 493.955 105.074 561.193 67.6815C628.43 30.2892 634.948 27.5448 688.12 14.509C741.293 1.47314 776.97 -2.3004 827.055 2.50228C877.14 7.30496 941.29 34.0627 938.546 38.5224C935.802 42.982 861.36 17.9397 813.333 24.8004C765.306 31.6612 788.459 24.7663 708.703 53.9596C625.952 85.9138 447.986 211.762 417.112 230.63C386.238 249.497 321.059 273.511 278.177 283.802C235.296 294.094 257.98 289.179 223.29 294.094C190.7 295.123 151.936 298.896 115.229 292.378C78.5232 285.86 62.7429 276.598 39.7587 264.934Z" fill="#183059" stroke="#183059"/>
<path d="M153.736 338.299C102.965 329.723 66.6018 302.622 43.9606 293.703C42.5884 291.301 24.7498 279.981 33.669 281.696C42.5883 283.411 59.0546 296.104 85.1263 302.279C111.198 308.454 135.554 311.198 164.027 312.57C192.501 313.942 197.303 314.628 227.491 309.14C257.68 303.651 279.978 297.476 314.969 285.126C349.96 272.777 326.976 285.126 402.446 247.391C476.545 205.196 605.188 119.434 685.461 77.5819C767.793 44.9923 759.217 48.4228 803.813 41.5618C851.84 36.073 888.203 37.1022 925.595 46.7076C962.988 56.3129 993.176 84.4429 990.774 86.1581C988.373 87.8734 946.864 59.4004 913.589 55.2838C880.313 51.1672 870.364 50.4811 824.396 65.5752C778.427 80.6694 742.75 96.4496 683.746 130.754C624.742 165.059 581.174 204.853 529.374 237.099C477.574 269.346 471.742 272.09 424.744 291.987C377.747 311.884 348.588 327.321 294.386 336.584C240.184 345.846 204.507 346.875 153.736 338.299Z" fill="#C9CDDD" stroke="#C9CDDD"/>
</svg>
