<svg width="300" height="176" viewBox="0 0 300 176" fill="none" xmlns="http://www.w3.org/2000/svg">
<path d="M180.808 61.5L155.808 80.5L155.308 175.5H180.808V61.5Z" fill="#FDFBF7"/>
<path d="M192.808 175.5V58.5H260.808C264.67 58.4751 266.842 58.4968 270.808 59C273.214 59.5105 276.308 61.5 276.308 61.5L280.808 63.5L285.808 66L290.308 70L293.808 74.5L296.808 79L298.808 84.5V102L296.808 109L293.808 114.5L290.308 119L286.308 122.5C284.579 124.044 281.308 125.5 281.308 125.5L276.308 127L270.808 127.5H228.308V106.5H263.808L270.808 103L273.308 99.5V95.5V88.5L270.808 84.5L263.808 80.5H218.308V175.5H192.808Z" fill="#FDFBF7"/>
<path d="M180.808 61.5L155.808 80.5L155.308 175.5H180.808V61.5Z" stroke="#FDFBF7"/>
<path d="M192.808 175.5V58.5H260.808C264.67 58.4751 266.842 58.4968 270.808 59C273.214 59.5105 276.308 61.5 276.308 61.5L280.808 63.5L285.808 66L290.308 70L293.808 74.5L296.808 79L298.808 84.5V102L296.808 109L293.808 114.5L290.308 119L286.308 122.5C284.579 124.044 281.308 125.5 281.308 125.5L276.308 127L270.808 127.5H228.308V106.5H263.808L270.808 103L273.308 99.5V95.5V88.5L270.808 84.5L263.808 80.5H218.308V175.5H192.808Z" stroke="#FDFBF7"/>
<ellipse cx="75.3081" cy="48.5" rx="18" ry="16" fill="#DDA73B"/>
<path d="M11.8081 77.5837C5.10811 74.1837 2.60811 70.3837 0.308105 68.5837C6.80811 70.6837 20.2081 77.5837 32.8081 79.0837C45.4081 80.5837 49.3081 80.0837 63.3081 76.0837C77.3081 72.0837 82.7081 70.2837 102.808 59.0837C122.908 47.8837 144.208 30.9837 163.808 20.0837C183.408 9.18368 185.308 8.38368 200.808 4.58368C216.308 0.783682 226.708 -0.316318 241.308 1.08368C255.908 2.48368 274.608 10.2837 273.808 11.5837C273.008 12.8837 251.308 5.58374 237.308 7.58368C223.308 9.58362 230.057 7.57374 206.808 16.0837C182.686 25.3985 130.808 62.0837 121.808 67.5837C112.808 73.0836 93.8081 80.0837 81.3081 83.0837C68.8081 86.0837 75.4205 84.6511 65.3081 86.0837C55.8081 86.3837 44.5081 87.4837 33.8081 85.5837C23.1081 83.6837 18.5081 80.9837 11.8081 77.5837Z" fill="#FDFBF7" stroke="#FDFBF7"/>
<path d="M45.0329 98.9697C30.2329 96.4697 19.633 88.5697 13.033 85.9697C12.633 85.2697 7.43294 81.9697 10.0329 82.4697C12.6329 82.9697 17.4329 86.6697 25.0329 88.4697C32.6329 90.2697 39.7329 91.0697 48.0329 91.4697C56.3329 91.8697 57.7329 92.0697 66.5329 90.4697C75.3329 88.8697 81.8329 87.0697 92.0329 83.4697C102.233 79.8697 95.5329 83.4697 117.533 72.4697C139.133 60.1697 176.633 35.1697 200.033 22.9697C224.033 13.4697 221.533 14.4697 234.533 12.4697C248.533 10.8697 259.133 11.1697 270.033 13.9697C280.933 16.7697 289.733 24.9697 289.033 25.4697C288.333 25.9697 276.233 17.6697 266.533 16.4697C256.833 15.2697 253.933 15.0697 240.533 19.4697C227.133 23.8697 216.733 28.4697 199.533 38.4697C182.333 48.4697 169.633 60.0697 154.533 69.4697C139.433 78.8697 137.733 79.6697 124.033 85.4697C110.333 91.2697 101.833 95.7697 86.0329 98.4697C70.2329 101.17 59.8329 101.47 45.0329 98.9697Z" fill="#C9CDDD" stroke="#C9CDDD"/>
</svg>
